<svg width="641" height="641" viewBox="0 0 641 641" fill="none" xmlns="http://www.w3.org/2000/svg">
<circle cx="320.5" cy="320.5" r="320.5" fill="black"/>
<circle cx="320" cy="320" r="14" fill="white"/>
<circle cx="320" cy="320" r="277.5" stroke="#434343"/>
<circle cx="320" cy="320" r="176.5" stroke="#434343"/>
<circle cx="320" cy="320" r="224.5" stroke="#434343"/>
<circle cx="320" cy="320" r="251.5" stroke="#434343"/>
<circle cx="320" cy="320" r="160.5" stroke="#434343"/>
<circle cx="320" cy="320" r="203.5" stroke="#434343"/>
<circle cx="320" cy="320" r="281.5" stroke="#434343"/>
<circle cx="320" cy="320" r="179.5" stroke="#434343"/>
<circle cx="320" cy="320" r="227.5" stroke="#434343"/>
<circle cx="320" cy="320" r="255.5" stroke="#434343"/>
<circle cx="320" cy="320" r="162.5" stroke="#434343"/>
<circle cx="320" cy="320" r="206.5" stroke="#434343"/>
<circle cx="320" cy="320" r="273.5" stroke="#434343"/>
<circle cx="320" cy="320" r="174.5" stroke="#434343"/>
<circle cx="320" cy="320" r="221.5" stroke="#434343"/>
<circle cx="320" cy="320" r="247.5" stroke="#434343"/>
<circle cx="320" cy="320" r="157.5" stroke="#434343"/>
<circle cx="320" cy="320" r="200.5" stroke="#434343"/>
<circle cx="320" cy="320" r="285.5" stroke="#434343"/>
<circle cx="320" cy="320" r="181.5" stroke="#434343"/>
<circle cx="320" cy="320" r="230.5" stroke="#434343"/>
<circle cx="320" cy="320" r="258.5" stroke="#434343"/>
<circle cx="320" cy="320" r="164.5" stroke="#434343"/>
<circle cx="320" cy="320" r="208.5" stroke="#434343"/>
<circle cx="320" cy="320" r="289.5" stroke="#434343"/>
<circle cx="320" cy="320" r="184.5" stroke="#434343"/>
<circle cx="320" cy="320" r="234.5" stroke="#434343"/>
<circle cx="320" cy="320" r="262.5" stroke="#434343"/>
<circle cx="320" cy="320" r="167.5" stroke="#434343"/>
<circle cx="320" cy="320" r="212.5" stroke="#434343"/>
<circle cx="320" cy="320" r="293.5" stroke="#434343"/>
<circle cx="320" cy="320" r="186.5" stroke="#434343"/>
<circle cx="320" cy="320" r="237.5" stroke="#434343"/>
<circle cx="320" cy="320" r="265.5" stroke="#434343"/>
<circle cx="320" cy="320" r="169.5" stroke="#434343"/>
<circle cx="320" cy="320" r="214.5" stroke="#434343"/>
<circle cx="320" cy="320" r="297.5" stroke="#434343"/>
<circle cx="320" cy="320" r="189.5" stroke="#434343"/>
<circle cx="320" cy="320" r="240.5" stroke="#434343"/>
<circle cx="320" cy="320" r="269.5" stroke="#434343"/>
<circle cx="320" cy="320" r="171.5" stroke="#434343"/>
<circle cx="320" cy="320" r="217.5" stroke="#434343"/>
</svg>
